# Blender v2.80 (sub 75) OBJ File: ''
# www.blender.org
mtllib doggo.mtl
o Cube
v 0.704798 1.418681 0.704798
v 0.704798 0.009086 0.704798
v -0.704798 1.418681 0.704798
v -0.704798 0.009086 0.704798
v -0.194248 1.398952 -0.231327
v -0.194248 1.838436 -0.471312
v -0.194248 1.362799 -0.693175
v -0.194248 1.820722 -0.565204
v 0.227563 1.398952 -0.231327
v 0.227563 1.838436 -0.471312
v 0.227563 1.362799 -0.693175
v 0.227563 1.820722 -0.565204
v -0.194248 1.380876 -0.466548
v -0.194248 1.846359 -0.518258
v 0.227563 1.380876 -0.466548
v 0.227563 1.846359 -0.518258
v 0.704798 1.418681 -0.704798
v 0.704798 0.009086 -0.704798
v -0.704798 1.418681 -0.704798
v -0.704798 0.009086 -0.704798
v -0.194248 1.398952 0.231327
v -0.194248 1.838436 0.471312
v -0.194248 1.362799 0.693175
v -0.194248 1.820722 0.565204
v 0.227563 1.398952 0.231327
v 0.227563 1.838436 0.471312
v 0.227563 1.362799 0.693175
v 0.227563 1.820722 0.565204
v -0.194248 1.380876 0.466548
v -0.194248 1.846359 0.518258
v 0.227563 1.380876 0.466548
v 0.227563 1.846359 0.518258
v -1.490787 1.028797 -0.059529
v -0.656606 0.390706 -0.113459
v -1.532496 1.010070 -0.042080
v -0.676712 0.302803 -0.070248
v -1.549952 1.007041 0.005861
v -0.680873 0.282786 0.025247
v -1.537650 1.048301 0.050715
v -0.667406 0.342677 0.102223
v -1.462058 1.049201 0.058675
v -0.645806 0.438734 0.102223
v -1.450375 1.060131 0.015535
v -0.632339 0.498625 0.025247
v -1.453748 1.051560 -0.034021
v -0.637145 0.477250 -0.070741
v -1.017304 0.504647 -0.239159
v -1.095976 0.333254 -0.144638
v -1.114947 0.294627 0.059897
v -1.062459 0.417084 0.222114
v -0.976913 0.608754 0.219108
v -0.922725 0.725306 0.053145
v -0.940701 0.678974 -0.150803
v -1.372609 0.692997 -0.100338
v -1.396082 0.676162 0.040349
v -1.320163 0.726154 0.150697
v -1.202099 0.804939 0.147560
v -1.130794 0.853189 0.033300
v -1.159476 0.834361 -0.106408
v -1.267369 0.763085 -0.165695
v -1.520267 1.079100 0.007778
vt 0.999702 0.333035
vt 0.666965 0.333035
vt 0.666965 0.000298
vt 0.999702 0.000298
vt 0.000298 0.666368
vt 0.000298 0.333632
vt 0.333035 0.333632
vt 0.333035 0.666368
vt 0.333035 0.666965
vt 0.333035 0.999702
vt 0.000298 0.999702
vt 0.000298 0.666965
vt 0.666368 0.333035
vt 0.333632 0.333035
vt 0.333632 0.000298
vt 0.666368 0.000298
vt 0.684366 0.720436
vt 0.768912 0.760045
vt 0.763182 0.767759
vt 0.666965 0.784521
vt 0.837674 0.810151
vt 0.726353 0.896743
vt 0.626976 0.832602
vt 0.516481 0.836196
vt 0.519210 0.825295
vt 0.627055 0.776915
vt 0.722061 0.661602
vt 0.849218 0.637970
vt 0.849218 0.788066
vt 0.771538 0.751832
vt 0.844080 0.798420
vt 0.627055 0.886268
vt 0.521649 0.847717
vt 0.666368 0.666368
vt 0.333632 0.666368
vt 0.333632 0.333632
vt 0.666368 0.333632
vt 0.351033 0.843272
vt 0.333632 0.779187
vt 0.429849 0.795948
vt 0.435578 0.803663
vt 0.393019 0.666965
vt 0.504341 0.753557
vt 0.626976 0.720630
vt 0.627055 0.776318
vt 0.519210 0.727938
vt 0.516481 0.717036
vt 0.388727 0.902106
vt 0.438204 0.811876
vt 0.515884 0.775642
vt 0.515884 0.925737
vt 0.510746 0.765287
vt 0.627055 0.666965
vt 0.521649 0.705516
vt 0.785950 0.423178
vt 0.698254 0.444927
vt 0.687485 0.420967
vt 0.779929 0.382856
vt 0.674427 0.397350
vt 0.773739 0.333632
vt 0.755603 0.637374
vt 0.666965 0.560382
vt 0.684237 0.539633
vt 0.771287 0.588682
vt 0.697695 0.517854
vt 0.783769 0.547402
vt 0.705710 0.494178
vt 0.791945 0.505641
vt 0.705105 0.469152
vt 0.791487 0.463043
vt 0.640955 0.697480
vt 0.644430 0.678275
vt 0.659647 0.681171
vt 0.654134 0.693480
vt 0.851188 0.469379
vt 0.860587 0.437440
vt 0.849684 0.505337
vt 0.852926 0.541929
vt 0.862756 0.576118
vt 0.876621 0.611316
vt 0.874270 0.406820
vt 0.890756 0.372770
vt 0.948047 0.459093
vt 0.955111 0.448305
vt 0.964234 0.438074
vt 0.964234 0.565306
vt 0.963916 0.548657
vt 0.948435 0.535304
vt 0.950052 0.523353
vt 0.947775 0.484730
vt 0.945174 0.471732
vt 0.640669 0.666965
vt 0.659647 0.668864
vt 0.627652 0.676316
vt 0.629751 0.690038
vt 0.333035 0.000298
vt 0.333035 0.333035
vt 0.000298 0.333035
vt 0.000298 0.000298
vn 0.5773 -0.5773 0.5773
vn 0.5773 0.5773 0.5773
vn -0.5773 0.5773 0.5773
vn -0.5773 -0.5773 0.5773
vn 0.5773 0.5773 -0.5773
vn -0.5773 0.5773 -0.5773
vn 0.5773 -0.5773 -0.5773
vn -0.5773 -0.5773 -0.5773
vn -1.0000 0.0000 0.0000
vn -0.6403 0.7575 -0.1271
vn -0.6292 0.4837 -0.6084
vn -0.6130 0.2126 -0.7609
vn 0.6292 0.4837 -0.6084
vn 0.6130 0.2126 -0.7609
vn 1.0000 0.0000 0.0000
vn 0.6403 0.7575 -0.1271
vn 0.6207 0.6385 0.4549
vn 0.5899 0.3870 0.7086
vn -0.5899 0.3870 0.7086
vn -0.6207 0.6385 0.4549
vn -0.6130 0.2126 0.7609
vn -0.6292 0.4837 0.6084
vn -0.6403 0.7575 0.1271
vn 0.6130 0.2126 0.7609
vn 0.6292 0.4837 0.6084
vn 0.5899 0.3870 -0.7086
vn 0.6207 0.6385 -0.4549
vn 0.6403 0.7575 0.1271
vn -0.5899 0.3870 -0.7086
vn -0.6207 0.6385 -0.4549
vn 0.0175 -0.0606 -0.9980
vn 0.2862 -0.1368 -0.9483
vn 0.0455 -0.8217 -0.5681
vn -0.3608 -0.7160 -0.5976
vn -0.0064 -0.9765 0.2151
vn -0.4434 -0.8653 0.2336
vn 0.1626 -0.5098 0.8448
vn -0.1877 -0.4013 0.8965
vn 0.4376 0.2665 0.8588
vn 0.2546 0.3373 0.9063
vn 0.6102 0.7644 0.2082
vn 0.5571 0.8010 0.2193
vn 0.5412 0.5807 -0.6082
vn 0.4412 0.6216 -0.6472
vn -0.2793 0.4688 -0.8380
vn -0.3865 0.9155 -0.1111
vn 0.3407 0.9346 0.1018
vn 0.2791 0.8037 -0.5255
vn 0.3810 0.6983 -0.6060
vn -0.1727 0.1658 -0.9709
vn 0.5257 0.8311 0.1810
vn 0.1620 0.4899 0.8566
vn -0.4714 -0.1171 0.8741
vn -0.8487 -0.4839 0.2134
vn -0.7183 -0.3614 -0.5944
vn -0.8084 0.0533 -0.5862
vn -0.9980 -0.0607 0.0169
vn -0.6554 0.4366 0.6162
vn 0.1249 0.6373 0.7604
usemtl Material
s 1
f 2/1/1 1/2/2 3/3/3 4/4/4
f 1/5/2 17/6/5 19/7/6 3/8/3
f 2/9/1 18/10/7 17/11/5 1/12/2
f 20/13/8 4/14/4 3/15/3 19/16/6
f 13/17/9 14/18/10 8/19/11 7/20/12
f 7/20/12 8/19/11 12/21/13 11/22/14
f 15/23/15 16/24/16 10/25/17 9/26/18
f 5/27/19 9/28/18 10/29/17 6/30/20
f 16/31/16 14/18/10 6/30/20 10/29/17
f 12/21/13 8/19/11 14/18/10 16/31/16
f 11/32/14 12/33/13 16/24/16 15/23/15
f 5/27/19 6/30/20 14/18/10 13/17/9
f 18/34/7 20/35/8 19/36/6 17/37/5
f 29/38/9 23/39/21 24/40/22 30/41/23
f 23/39/21 27/42/24 28/43/25 24/40/22
f 31/44/15 25/45/26 26/46/27 32/47/28
f 21/48/29 22/49/30 26/50/27 25/51/26
f 32/52/28 26/50/27 22/49/30 30/41/23
f 28/43/25 32/52/28 30/41/23 24/40/22
f 27/53/24 31/44/15 32/47/28 28/54/25
f 21/48/29 29/38/9 30/41/23 22/49/30
f 47/55/31 34/56/32 36/57/33 48/58/34
f 48/58/34 36/57/33 38/59/35 49/60/36
f 49/61/36 38/62/35 40/63/37 50/64/38
f 50/64/38 40/63/37 42/65/39 51/66/40
f 51/66/40 42/65/39 44/67/41 52/68/42
f 52/68/42 44/67/41 46/69/43 53/70/44
f 53/70/44 46/69/43 34/56/32 47/55/31
f 33/71/45 61/72/46 43/73/47 45/74/48
f 59/75/49 53/70/44 47/55/31 60/76/50
f 58/77/51 52/68/42 53/70/44 59/75/49
f 57/78/52 51/66/40 52/68/42 58/77/51
f 56/79/53 50/64/38 51/66/40 57/78/52
f 55/80/54 49/61/36 50/64/38 56/79/53
f 54/81/55 48/58/34 49/60/36 55/82/54
f 60/76/50 47/55/31 48/58/34 54/81/55
f 33/83/45 60/76/50 54/81/55 35/84/56
f 35/84/56 54/81/55 55/82/54 37/85/57
f 37/86/57 55/80/54 56/79/53 39/87/58
f 39/87/58 56/79/53 57/78/52 41/88/59
f 41/88/59 57/78/52 58/77/51 43/89/47
f 43/90/47 58/77/51 59/75/49 45/91/48
f 45/91/48 59/75/49 60/76/50 33/83/45
f 43/73/47 61/72/46 39/92/58 41/93/59
f 39/92/58 61/72/46 37/94/57
f 61/72/46 33/71/45 35/95/56 37/94/57
f 4/96/4 20/97/8 18/98/7 2/99/1
